<svg xmlns="http://www.w3.org/2000/svg" viewBox="0 0 64 64" role="img" aria-label="stripe3">
  <rect width="64" height="64" fill="#030303"/>
  <rect x="8.5" y="8.5" width="47" height="47" fill="#050505" stroke="#3399ff" stroke-width="3"/>
  <path d="M18 18h12M40 18h6v6M46 40v6h-6M24 46h-6v-6M18 30V18" fill="none" stroke="#ffffff" stroke-width="3" stroke-linecap="square"/>
  <path d="M23 25c0-4 3.2-6.6 8.3-6.6h9.7M23 25c0 3.6 2.9 5.4 7.7 5.4h3.6c4.6 0 7.4 2.1 7.4 6.2 0 4.4-3.5 6.8-8.9 6.8H22.8" fill="none" stroke="#ffffff" stroke-width="4.8" stroke-linecap="square" stroke-linejoin="miter"/>
  <path d="M42 18h-8M42 30.4h-7.6M42 43.4h-8.8" fill="none" stroke="#3399ff" stroke-width="2.4" stroke-linecap="square"/>
  <rect x="14" y="14" width="4" height="4" fill="#3399ff"/>
  <rect x="46" y="46" width="4" height="4" fill="#3399ff"/>
</svg>
